<svg width="483" height="76" viewBox="0 0 483 76" fill="none" xmlns="http://www.w3.org/2000/svg">
<rect x="288" y="10" width="64" height="64" rx="6" stroke="#574689" stroke-width="4"/>
<path d="M39.4941 35.5395C45.3762 32.6579 49.0975 27.2549 49.0975 19.5707C49.0975 7.68421 39.8542 0 28.3301 0H0V72.0395H30.9711C42.3751 72.0395 51.4984 64.5954 51.4984 52.7089C51.4984 43.9441 46.5766 38.1809 39.4941 35.5395ZM37.3333 20.7714C37.3333 26.4145 32.6517 30.8569 27.0096 30.8569H11.6442V10.926H27.0096C32.6517 10.926 37.3333 15.0082 37.3333 20.7714ZM29.2905 61.1135H11.6442V41.1826H29.2905C35.0525 41.1826 39.7342 45.625 39.7342 51.2681C39.7342 56.9112 35.0525 61.1135 29.2905 61.1135Z" fill="white"/>
<path d="M82.8071 73C95.4116 73 102.974 65.7961 102.974 54.2697V24.0132H91.6903V52.8289C91.6903 58.7122 87.9689 62.4342 82.8071 62.4342C77.6452 62.4342 73.9239 58.7122 73.9239 52.8289V24.0132H62.6399V54.2697C62.6399 65.7961 70.2026 73 82.8071 73Z" fill="white"/>
<path d="M131.076 73C140.679 73 147.521 66.8766 147.521 58.2319C147.521 49.1069 139.839 45.5049 133.356 42.8635C128.675 40.9424 126.394 39.9819 126.394 36.9803C126.394 34.2188 128.315 32.6579 131.556 32.6579C134.677 32.6579 137.438 34.0987 138.758 36.2599L145.961 30.3766C143.44 26.2944 137.318 23.0526 130.835 23.0526C121.832 23.0526 115.11 29.176 115.11 37.5806C115.11 46.1053 122.192 49.7072 129.395 52.3487C134.437 54.3898 136.718 55.7105 136.718 58.472C136.718 61.4737 134.077 63.1546 130.715 63.1546C127.234 63.1546 123.393 61.4737 121.952 57.7516L112.709 61.9539C114.99 68.5576 123.033 73 131.076 73Z" fill="white"/>
<path d="M180.755 73C193.479 73 203.083 65.1957 205.724 54.1497H193.839C191.558 59.0724 186.637 62.4342 180.755 62.4342C172.712 62.4342 166.349 56.1908 166.349 48.0263C166.349 39.8618 172.712 33.6184 180.755 33.6184C186.637 33.6184 191.558 36.9803 193.839 41.903H205.724C203.083 30.8569 193.479 23.0526 180.755 23.0526C165.869 23.0526 154.945 33.9786 154.945 48.0263C154.945 62.074 165.869 73 180.755 73Z" fill="white"/>
<path d="M268.791 62.6743C266.51 62.6743 264.349 61.4737 264.349 57.2714V24.0132H252.945V29.0559C248.864 25.3339 243.582 23.0526 237.46 23.0526C223.895 23.0526 213.091 34.0987 213.091 48.0263C213.091 61.9539 223.895 73 237.46 73C244.422 73 250.545 69.8783 254.626 64.9556C257.027 69.7582 261.709 73 267.591 73C269.031 73 270.352 72.6398 271.432 72.0395V62.6743H268.791ZM238.9 62.4342C230.857 62.4342 224.495 56.0707 224.495 48.0263C224.495 39.9819 230.857 33.6184 238.9 33.6184C246.823 33.6184 253.306 39.9819 253.306 48.0263C253.306 56.0707 246.823 62.4342 238.9 62.4342Z" fill="white"/>
<path d="M343.611 0L324.165 57.1513L308.19 12.0066H296.686L317.562 72.0395H330.647L356.696 0H343.611Z" fill="white"/>
<path d="M404.672 47.7862C404.432 33.3783 393.868 23.0526 379.343 23.0526C364.698 23.0526 353.654 33.6184 353.654 48.0263C353.654 62.4342 364.578 73 379.463 73C391.827 73 401.071 65.676 403.832 55.2303H392.428C390.387 60.273 385.585 63.5148 379.463 63.5148C371.42 63.5148 365.778 57.8717 365.178 49.8273H404.552L404.672 47.7862ZM379.463 32.6579C385.705 32.6579 390.147 36.1398 392.188 41.6628H366.138C368.299 36.2599 372.981 32.6579 379.463 32.6579Z" fill="white"/>
<path d="M430.32 73C439.923 73 446.766 66.8766 446.766 58.2319C446.766 49.1069 439.083 45.5049 432.601 42.8635C427.919 40.9424 425.638 39.9819 425.638 36.9803C425.638 34.2188 427.559 32.6579 430.8 32.6579C433.921 32.6579 436.682 34.0987 438.003 36.2599L445.205 30.3766C442.684 26.2944 436.562 23.0526 430.08 23.0526C421.077 23.0526 414.354 29.176 414.354 37.5806C414.354 46.1053 421.437 49.7072 428.639 52.3487C433.681 54.3898 435.962 55.7105 435.962 58.472C435.962 61.4737 433.321 63.1546 429.96 63.1546C426.479 63.1546 422.637 61.4737 421.197 57.7516L411.953 61.9539C414.234 68.5576 422.277 73 430.32 73Z" fill="white"/>
<path d="M483 33.6184V24.0132H470.876V4.32237H459.472V24.0132H451.549V33.6184H459.472V57.1513C459.472 66.0362 467.034 73 475.797 73C478.558 73 481.56 72.2796 482.76 71.4391V62.6743H477.238C473.637 62.6743 470.876 60.0329 470.876 55.8306V33.6184H483Z" fill="white"/>
</svg>
